<mxfile host="33d40c20-f246-432e-a403-ed3d8f74744d" modified="2020-08-10T13:28:31.065Z" agent="5.0 (Windows NT 10.0; Win64; x64) AppleWebKit/537.36 (KHTML, like Gecko) Code/1.47.3 Chrome/78.0.3904.130 Electron/7.3.2 Safari/537.36" etag="jECZxoLF_1oqVY7RGTKN" version="13.1.3">
    <diagram id="6hGFLwfOUW9BJ-s0fimq" name="Page-1">
        <mxGraphModel dx="864" dy="480" grid="0" gridSize="10" guides="1" tooltips="1" connect="1" arrows="1" fold="1" page="1" pageScale="1" pageWidth="827" pageHeight="1169" background="#808080" math="0" shadow="0">
            <root>
                <mxCell id="0"/>
                <mxCell id="1" parent="0"/>
                <mxCell id="12" value="头结点" style="text;html=1;strokeColor=none;fillColor=none;align=center;verticalAlign=middle;whiteSpace=wrap;rounded=0;" parent="1" vertex="1">
                    <mxGeometry x="168.5" y="173" width="40" height="20" as="geometry"/>
                </mxCell>
                <mxCell id="13" value="head" style="text;html=1;strokeColor=none;fillColor=none;align=center;verticalAlign=middle;whiteSpace=wrap;rounded=0;" parent="1" vertex="1">
                    <mxGeometry x="104" y="208" width="40" height="20" as="geometry"/>
                </mxCell>
                <mxCell id="14" value="" style="endArrow=classic;html=1;strokeColor=#FFFF66;strokeWidth=1;" parent="1" edge="1">
                    <mxGeometry width="50" height="50" relative="1" as="geometry">
                        <mxPoint x="141" y="217" as="sourcePoint"/>
                        <mxPoint x="169" y="217" as="targetPoint"/>
                    </mxGeometry>
                </mxCell>
                <mxCell id="16" value="&lt;font style=&quot;font-size: 12px&quot;&gt;nil&lt;/font&gt;" style="text;html=1;strokeColor=none;fillColor=none;align=center;verticalAlign=middle;whiteSpace=wrap;rounded=0;" parent="1" vertex="1">
                    <mxGeometry x="104" y="193" width="40" height="20" as="geometry"/>
                </mxCell>
                <mxCell id="17" value="空链表" style="text;html=1;strokeColor=none;fillColor=none;align=center;verticalAlign=middle;whiteSpace=wrap;rounded=0;" parent="1" vertex="1">
                    <mxGeometry x="88" y="144" width="40" height="20" as="geometry"/>
                </mxCell>
                <mxCell id="18" value="非空链表" style="text;html=1;strokeColor=none;fillColor=none;align=center;verticalAlign=middle;whiteSpace=wrap;rounded=0;" parent="1" vertex="1">
                    <mxGeometry x="70" y="298" width="70" height="20" as="geometry"/>
                </mxCell>
                <mxCell id="39" value="数据域" style="text;html=1;strokeColor=none;fillColor=none;align=center;verticalAlign=middle;whiteSpace=wrap;rounded=0;" parent="1" vertex="1">
                    <mxGeometry x="205" y="230" width="40" height="20" as="geometry"/>
                </mxCell>
                <mxCell id="40" value="指针域" style="text;html=1;strokeColor=none;fillColor=none;align=center;verticalAlign=middle;whiteSpace=wrap;rounded=0;" parent="1" vertex="1">
                    <mxGeometry x="246" y="230" width="40" height="20" as="geometry"/>
                </mxCell>
                <mxCell id="46" value="" style="group;spacing=0;" parent="1" vertex="1" connectable="0">
                    <mxGeometry x="169" y="197" width="117" height="27" as="geometry"/>
                </mxCell>
                <mxCell id="41" value="&lt;span style=&quot;font-size: 15px&quot;&gt;&amp;nbsp;pre&amp;nbsp; &amp;nbsp;data&amp;nbsp; &amp;nbsp;next&lt;/span&gt;" style="rounded=0;whiteSpace=wrap;html=1;strokeColor=#FFFF66;strokeWidth=2;spacing=0;align=left;spacingLeft=2;spacingBottom=3;" parent="46" vertex="1">
                    <mxGeometry width="117" height="27" as="geometry"/>
                </mxCell>
                <mxCell id="44" value="" style="endArrow=none;html=1;entryX=0.5;entryY=0;entryDx=0;entryDy=0;exitX=0.5;exitY=1;exitDx=0;exitDy=0;strokeColor=#FFFF66;strokeWidth=2;" parent="46" edge="1">
                    <mxGeometry width="50" height="50" relative="1" as="geometry">
                        <mxPoint x="31.571428571428573" y="27" as="sourcePoint"/>
                        <mxPoint x="31.571428571428573" as="targetPoint"/>
                    </mxGeometry>
                </mxCell>
                <mxCell id="45" value="" style="endArrow=none;html=1;entryX=0.5;entryY=0;entryDx=0;entryDy=0;exitX=0.5;exitY=1;exitDx=0;exitDy=0;strokeColor=#FFFF66;strokeWidth=2;" parent="46" edge="1">
                    <mxGeometry width="50" height="50" relative="1" as="geometry">
                        <mxPoint x="75.00142857142856" y="27" as="sourcePoint"/>
                        <mxPoint x="75.00142857142856" as="targetPoint"/>
                    </mxGeometry>
                </mxCell>
                <mxCell id="15" value="" style="endArrow=classic;html=1;strokeColor=#FFFF66;strokeWidth=1;startArrow=oval;startFill=1;startSize=2;" parent="1" edge="1">
                    <mxGeometry width="50" height="50" relative="1" as="geometry">
                        <mxPoint x="173" y="204" as="sourcePoint"/>
                        <mxPoint x="135" y="204" as="targetPoint"/>
                    </mxGeometry>
                </mxCell>
                <mxCell id="49" value="" style="endArrow=classic;html=1;strokeColor=#FFFF66;strokeWidth=1;startArrow=oval;startFill=1;startSize=2;" parent="1" edge="1">
                    <mxGeometry width="50" height="50" relative="1" as="geometry">
                        <mxPoint x="282" y="219.88000000000002" as="sourcePoint"/>
                        <mxPoint x="320" y="219.88000000000002" as="targetPoint"/>
                    </mxGeometry>
                </mxCell>
                <mxCell id="50" value="&lt;font style=&quot;font-size: 12px&quot;&gt;nil&lt;/font&gt;" style="text;html=1;strokeColor=none;fillColor=none;align=center;verticalAlign=middle;whiteSpace=wrap;rounded=0;" parent="1" vertex="1">
                    <mxGeometry x="310" y="208" width="40" height="20" as="geometry"/>
                </mxCell>
                <mxCell id="52" value="头结点" style="text;html=1;strokeColor=none;fillColor=none;align=center;verticalAlign=middle;whiteSpace=wrap;rounded=0;" parent="1" vertex="1">
                    <mxGeometry x="169" y="315" width="40" height="20" as="geometry"/>
                </mxCell>
                <mxCell id="53" value="head" style="text;html=1;strokeColor=none;fillColor=none;align=center;verticalAlign=middle;whiteSpace=wrap;rounded=0;" parent="1" vertex="1">
                    <mxGeometry x="70" y="350" width="40" height="20" as="geometry"/>
                </mxCell>
                <mxCell id="54" value="" style="endArrow=classic;html=1;strokeColor=#FFFF66;strokeWidth=1;" parent="1" edge="1">
                    <mxGeometry width="50" height="50" relative="1" as="geometry">
                        <mxPoint x="107" y="359" as="sourcePoint"/>
                        <mxPoint x="135" y="359" as="targetPoint"/>
                    </mxGeometry>
                </mxCell>
                <mxCell id="55" value="&lt;font style=&quot;font-size: 12px&quot;&gt;nil&lt;/font&gt;" style="text;html=1;strokeColor=none;fillColor=none;align=center;verticalAlign=middle;whiteSpace=wrap;rounded=0;" parent="1" vertex="1">
                    <mxGeometry x="70" y="335" width="40" height="20" as="geometry"/>
                </mxCell>
                <mxCell id="58" value="" style="group;spacing=0;" parent="1" vertex="1" connectable="0">
                    <mxGeometry x="135" y="339" width="117" height="27" as="geometry"/>
                </mxCell>
                <mxCell id="59" value="&lt;span style=&quot;font-size: 15px&quot;&gt;&amp;nbsp;pre&amp;nbsp; &amp;nbsp; nil&amp;nbsp; &amp;nbsp; next&lt;/span&gt;" style="rounded=0;whiteSpace=wrap;html=1;strokeColor=#FFFF66;strokeWidth=2;spacing=0;align=left;spacingLeft=2;spacingBottom=3;" parent="58" vertex="1">
                    <mxGeometry width="117" height="27" as="geometry"/>
                </mxCell>
                <mxCell id="60" value="" style="endArrow=none;html=1;entryX=0.5;entryY=0;entryDx=0;entryDy=0;exitX=0.5;exitY=1;exitDx=0;exitDy=0;strokeColor=#FFFF66;strokeWidth=2;" parent="58" edge="1">
                    <mxGeometry width="50" height="50" relative="1" as="geometry">
                        <mxPoint x="36.001428571428576" y="27" as="sourcePoint"/>
                        <mxPoint x="36.001428571428576" as="targetPoint"/>
                    </mxGeometry>
                </mxCell>
                <mxCell id="61" value="" style="endArrow=none;html=1;entryX=0.5;entryY=0;entryDx=0;entryDy=0;exitX=0.5;exitY=1;exitDx=0;exitDy=0;strokeColor=#FFFF66;strokeWidth=2;" parent="58" edge="1">
                    <mxGeometry width="50" height="50" relative="1" as="geometry">
                        <mxPoint x="70.00142857142856" y="27" as="sourcePoint"/>
                        <mxPoint x="70.00142857142856" as="targetPoint"/>
                    </mxGeometry>
                </mxCell>
                <mxCell id="62" value="" style="endArrow=classic;html=1;strokeColor=#FFFF66;strokeWidth=1;startArrow=oval;startFill=1;startSize=2;" parent="1" edge="1">
                    <mxGeometry width="50" height="50" relative="1" as="geometry">
                        <mxPoint x="139" y="346" as="sourcePoint"/>
                        <mxPoint x="101" y="346" as="targetPoint"/>
                    </mxGeometry>
                </mxCell>
                <mxCell id="65" value="第一个数据点" style="text;html=1;strokeColor=none;fillColor=none;align=center;verticalAlign=middle;whiteSpace=wrap;rounded=0;" parent="1" vertex="1">
                    <mxGeometry x="303" y="318" width="87" height="20" as="geometry"/>
                </mxCell>
                <mxCell id="67" value="" style="endArrow=classic;html=1;strokeColor=#FFFF66;strokeWidth=1;startArrow=oval;startFill=1;startSize=2;" parent="1" edge="1">
                    <mxGeometry width="50" height="50" relative="1" as="geometry">
                        <mxPoint x="248" y="359.9" as="sourcePoint"/>
                        <mxPoint x="286" y="360" as="targetPoint"/>
                    </mxGeometry>
                </mxCell>
                <mxCell id="71" value="" style="group;spacing=0;" parent="1" vertex="1" connectable="0">
                    <mxGeometry x="288" y="338" width="117" height="27" as="geometry"/>
                </mxCell>
                <mxCell id="72" value="&lt;span style=&quot;font-size: 15px&quot;&gt;&amp;nbsp;pre&amp;nbsp; &amp;nbsp;data&amp;nbsp; &amp;nbsp;next&lt;/span&gt;" style="rounded=0;whiteSpace=wrap;html=1;strokeColor=#FFFF66;strokeWidth=2;spacing=0;align=left;spacingLeft=2;spacingBottom=3;" parent="71" vertex="1">
                    <mxGeometry width="117" height="27" as="geometry"/>
                </mxCell>
                <mxCell id="73" value="" style="endArrow=none;html=1;entryX=0.5;entryY=0;entryDx=0;entryDy=0;exitX=0.5;exitY=1;exitDx=0;exitDy=0;strokeColor=#FFFF66;strokeWidth=2;" parent="71" edge="1">
                    <mxGeometry width="50" height="50" relative="1" as="geometry">
                        <mxPoint x="31.571428571428573" y="27" as="sourcePoint"/>
                        <mxPoint x="31.571428571428573" as="targetPoint"/>
                    </mxGeometry>
                </mxCell>
                <mxCell id="74" value="" style="endArrow=none;html=1;entryX=0.5;entryY=0;entryDx=0;entryDy=0;exitX=0.5;exitY=1;exitDx=0;exitDy=0;strokeColor=#FFFF66;strokeWidth=2;" parent="71" edge="1">
                    <mxGeometry width="50" height="50" relative="1" as="geometry">
                        <mxPoint x="75.00142857142856" y="27" as="sourcePoint"/>
                        <mxPoint x="75.00142857142856" as="targetPoint"/>
                    </mxGeometry>
                </mxCell>
                <mxCell id="75" value="" style="endArrow=classic;html=1;strokeColor=#FFFF66;strokeWidth=1;startArrow=oval;startFill=1;startSize=2;" parent="1" edge="1">
                    <mxGeometry width="50" height="50" relative="1" as="geometry">
                        <mxPoint x="292" y="345" as="sourcePoint"/>
                        <mxPoint x="254" y="345" as="targetPoint"/>
                    </mxGeometry>
                </mxCell>
                <mxCell id="79" value="" style="endArrow=classic;html=1;strokeColor=#FFFF66;strokeWidth=1;startArrow=oval;startFill=1;startSize=2;" parent="1" edge="1">
                    <mxGeometry width="50" height="50" relative="1" as="geometry">
                        <mxPoint x="399" y="358.9" as="sourcePoint"/>
                        <mxPoint x="437" y="359" as="targetPoint"/>
                    </mxGeometry>
                </mxCell>
                <mxCell id="82" value="" style="group;spacing=0;" parent="1" vertex="1" connectable="0">
                    <mxGeometry x="441" y="337" width="117" height="27" as="geometry"/>
                </mxCell>
                <mxCell id="83" value="&lt;span style=&quot;font-size: 15px&quot;&gt;&amp;nbsp;pre&amp;nbsp; &amp;nbsp;data&amp;nbsp; &amp;nbsp;next&lt;/span&gt;" style="rounded=0;whiteSpace=wrap;html=1;strokeColor=#FFFF66;strokeWidth=2;spacing=0;align=left;spacingLeft=2;spacingBottom=3;" parent="82" vertex="1">
                    <mxGeometry width="117" height="27" as="geometry"/>
                </mxCell>
                <mxCell id="84" value="" style="endArrow=none;html=1;entryX=0.5;entryY=0;entryDx=0;entryDy=0;exitX=0.5;exitY=1;exitDx=0;exitDy=0;strokeColor=#FFFF66;strokeWidth=2;" parent="82" edge="1">
                    <mxGeometry width="50" height="50" relative="1" as="geometry">
                        <mxPoint x="31.571428571428573" y="27" as="sourcePoint"/>
                        <mxPoint x="31.571428571428573" as="targetPoint"/>
                    </mxGeometry>
                </mxCell>
                <mxCell id="85" value="" style="endArrow=none;html=1;entryX=0.5;entryY=0;entryDx=0;entryDy=0;exitX=0.5;exitY=1;exitDx=0;exitDy=0;strokeColor=#FFFF66;strokeWidth=2;" parent="82" edge="1">
                    <mxGeometry width="50" height="50" relative="1" as="geometry">
                        <mxPoint x="75.00142857142856" y="27" as="sourcePoint"/>
                        <mxPoint x="75.00142857142856" as="targetPoint"/>
                    </mxGeometry>
                </mxCell>
                <mxCell id="86" value="" style="endArrow=classic;html=1;strokeColor=#FFFF66;strokeWidth=1;startArrow=oval;startFill=1;startSize=2;" parent="1" edge="1">
                    <mxGeometry width="50" height="50" relative="1" as="geometry">
                        <mxPoint x="443" y="344" as="sourcePoint"/>
                        <mxPoint x="405" y="344" as="targetPoint"/>
                    </mxGeometry>
                </mxCell>
                <mxCell id="87" value="&amp;nbsp; &amp;nbsp; &amp;nbsp; &amp;nbsp;&amp;nbsp;" style="text;html=1;align=center;verticalAlign=middle;resizable=0;points=[];autosize=1;" parent="1" vertex="1">
                    <mxGeometry x="501" y="437" width="36" height="17" as="geometry"/>
                </mxCell>
                <mxCell id="88" value="第二个数据点" style="text;html=1;strokeColor=none;fillColor=none;align=center;verticalAlign=middle;whiteSpace=wrap;rounded=0;" parent="1" vertex="1">
                    <mxGeometry x="456" y="315" width="87" height="20" as="geometry"/>
                </mxCell>
                <mxCell id="89" value="指针域" style="text;html=1;strokeColor=none;fillColor=none;align=center;verticalAlign=middle;whiteSpace=wrap;rounded=0;" parent="1" vertex="1">
                    <mxGeometry x="165" y="230" width="40" height="20" as="geometry"/>
                </mxCell>
                <mxCell id="95" value="" style="endArrow=classic;html=1;strokeColor=#FFFF66;strokeWidth=1;startArrow=oval;startFill=1;startSize=2;" parent="1" edge="1">
                    <mxGeometry width="50" height="50" relative="1" as="geometry">
                        <mxPoint x="553" y="359.9" as="sourcePoint"/>
                        <mxPoint x="591" y="360" as="targetPoint"/>
                    </mxGeometry>
                </mxCell>
                <mxCell id="96" value="" style="group;spacing=0;" parent="1" vertex="1" connectable="0">
                    <mxGeometry x="595" y="338" width="117" height="27" as="geometry"/>
                </mxCell>
                <mxCell id="97" value="&lt;span style=&quot;font-size: 15px&quot;&gt;&amp;nbsp;pre&amp;nbsp; &amp;nbsp;data&amp;nbsp; &amp;nbsp;next&lt;/span&gt;" style="rounded=0;whiteSpace=wrap;html=1;strokeColor=#FFFF66;strokeWidth=2;spacing=0;align=left;spacingLeft=2;spacingBottom=3;" parent="96" vertex="1">
                    <mxGeometry width="117" height="27" as="geometry"/>
                </mxCell>
                <mxCell id="98" value="" style="endArrow=none;html=1;entryX=0.5;entryY=0;entryDx=0;entryDy=0;exitX=0.5;exitY=1;exitDx=0;exitDy=0;strokeColor=#FFFF66;strokeWidth=2;" parent="96" edge="1">
                    <mxGeometry width="50" height="50" relative="1" as="geometry">
                        <mxPoint x="31.571428571428573" y="27" as="sourcePoint"/>
                        <mxPoint x="31.571428571428573" as="targetPoint"/>
                    </mxGeometry>
                </mxCell>
                <mxCell id="99" value="" style="endArrow=none;html=1;entryX=0.5;entryY=0;entryDx=0;entryDy=0;exitX=0.5;exitY=1;exitDx=0;exitDy=0;strokeColor=#FFFF66;strokeWidth=2;" parent="96" edge="1">
                    <mxGeometry width="50" height="50" relative="1" as="geometry">
                        <mxPoint x="75.00142857142856" y="27" as="sourcePoint"/>
                        <mxPoint x="75.00142857142856" as="targetPoint"/>
                    </mxGeometry>
                </mxCell>
                <mxCell id="100" value="" style="endArrow=classic;html=1;strokeColor=#FFFF66;strokeWidth=1;startArrow=oval;startFill=1;startSize=2;" parent="1" edge="1">
                    <mxGeometry width="50" height="50" relative="1" as="geometry">
                        <mxPoint x="597" y="345" as="sourcePoint"/>
                        <mxPoint x="559" y="345" as="targetPoint"/>
                    </mxGeometry>
                </mxCell>
                <mxCell id="101" value="第三个数据点" style="text;html=1;strokeColor=none;fillColor=none;align=center;verticalAlign=middle;whiteSpace=wrap;rounded=0;" parent="1" vertex="1">
                    <mxGeometry x="610" y="316" width="87" height="20" as="geometry"/>
                </mxCell>
                <mxCell id="102" value="" style="endArrow=classic;html=1;strokeColor=#FFFF66;strokeWidth=1;startArrow=oval;startFill=1;startSize=2;" parent="1" edge="1">
                    <mxGeometry width="50" height="50" relative="1" as="geometry">
                        <mxPoint x="708" y="359.83" as="sourcePoint"/>
                        <mxPoint x="746" y="359.93" as="targetPoint"/>
                    </mxGeometry>
                </mxCell>
                <mxCell id="103" value="&lt;font style=&quot;font-size: 12px&quot;&gt;nil&lt;/font&gt;" style="text;html=1;strokeColor=none;fillColor=none;align=center;verticalAlign=middle;whiteSpace=wrap;rounded=0;" parent="1" vertex="1">
                    <mxGeometry x="735" y="348" width="40" height="20" as="geometry"/>
                </mxCell>
                <mxCell id="252" value="头结点" style="text;html=1;strokeColor=none;fillColor=none;align=center;verticalAlign=middle;whiteSpace=wrap;rounded=0;" vertex="1" parent="1">
                    <mxGeometry x="182.5" y="536" width="40" height="20" as="geometry"/>
                </mxCell>
                <mxCell id="253" value="head" style="text;html=1;strokeColor=none;fillColor=none;align=center;verticalAlign=middle;whiteSpace=wrap;rounded=0;" vertex="1" parent="1">
                    <mxGeometry x="118" y="571" width="40" height="20" as="geometry"/>
                </mxCell>
                <mxCell id="254" value="" style="endArrow=classic;html=1;strokeColor=#FFFF66;strokeWidth=1;" edge="1" parent="1">
                    <mxGeometry width="50" height="50" relative="1" as="geometry">
                        <mxPoint x="155" y="580" as="sourcePoint"/>
                        <mxPoint x="183" y="580" as="targetPoint"/>
                    </mxGeometry>
                </mxCell>
                <mxCell id="255" value="&lt;font style=&quot;font-size: 12px&quot;&gt;nil&lt;/font&gt;" style="text;html=1;strokeColor=none;fillColor=none;align=center;verticalAlign=middle;whiteSpace=wrap;rounded=0;" vertex="1" parent="1">
                    <mxGeometry x="118" y="556" width="40" height="20" as="geometry"/>
                </mxCell>
                <mxCell id="256" value="空链表" style="text;html=1;strokeColor=none;fillColor=none;align=center;verticalAlign=middle;whiteSpace=wrap;rounded=0;" vertex="1" parent="1">
                    <mxGeometry x="102" y="507" width="40" height="20" as="geometry"/>
                </mxCell>
                <mxCell id="257" value="非空链表" style="text;html=1;strokeColor=none;fillColor=none;align=center;verticalAlign=middle;whiteSpace=wrap;rounded=0;" vertex="1" parent="1">
                    <mxGeometry x="69" y="761" width="70" height="20" as="geometry"/>
                </mxCell>
                <mxCell id="260" value="" style="group;spacing=0;" vertex="1" connectable="0" parent="1">
                    <mxGeometry x="183" y="560" width="135" height="56" as="geometry"/>
                </mxCell>
                <mxCell id="261" value="&lt;span style=&quot;font-size: 15px&quot;&gt;&amp;nbsp;pre&amp;nbsp; &amp;nbsp; nil&amp;nbsp; &amp;nbsp; &amp;nbsp;next&lt;/span&gt;" style="rounded=0;whiteSpace=wrap;html=1;strokeColor=#FFFF66;strokeWidth=2;spacing=0;align=left;spacingLeft=2;spacingBottom=3;" vertex="1" parent="260">
                    <mxGeometry width="117" height="27" as="geometry"/>
                </mxCell>
                <mxCell id="262" value="" style="endArrow=none;html=1;entryX=0.5;entryY=0;entryDx=0;entryDy=0;exitX=0.5;exitY=1;exitDx=0;exitDy=0;strokeColor=#FFFF66;strokeWidth=2;" edge="1" parent="260">
                    <mxGeometry width="50" height="50" relative="1" as="geometry">
                        <mxPoint x="35.001428571428576" y="27" as="sourcePoint"/>
                        <mxPoint x="35.001428571428576" as="targetPoint"/>
                    </mxGeometry>
                </mxCell>
                <mxCell id="263" value="" style="endArrow=none;html=1;entryX=0.5;entryY=0;entryDx=0;entryDy=0;exitX=0.5;exitY=1;exitDx=0;exitDy=0;strokeColor=#FFFF66;strokeWidth=2;" edge="1" parent="260">
                    <mxGeometry width="50" height="50" relative="1" as="geometry">
                        <mxPoint x="75.00142857142856" y="27" as="sourcePoint"/>
                        <mxPoint x="75.00142857142856" as="targetPoint"/>
                    </mxGeometry>
                </mxCell>
                <mxCell id="313" value="" style="rounded=1;whiteSpace=wrap;html=1;fillColor=none;strokeColor=#FF0080;fontColor=#ffffff;" vertex="1" parent="260">
                    <mxGeometry x="-8" y="-6" width="132" height="40" as="geometry"/>
                </mxCell>
                <mxCell id="264" value="" style="endArrow=classic;html=1;strokeColor=#FFFF66;strokeWidth=1;startArrow=oval;startFill=1;startSize=2;" edge="1" parent="1">
                    <mxGeometry width="50" height="50" relative="1" as="geometry">
                        <mxPoint x="187" y="567" as="sourcePoint"/>
                        <mxPoint x="149" y="567" as="targetPoint"/>
                    </mxGeometry>
                </mxCell>
                <mxCell id="265" value="" style="endArrow=classic;html=1;strokeColor=#FFFF66;strokeWidth=1;startArrow=oval;startFill=1;startSize=2;" edge="1" parent="1">
                    <mxGeometry width="50" height="50" relative="1" as="geometry">
                        <mxPoint x="296" y="582.88" as="sourcePoint"/>
                        <mxPoint x="334" y="582.88" as="targetPoint"/>
                    </mxGeometry>
                </mxCell>
                <mxCell id="266" value="&lt;font style=&quot;font-size: 12px&quot;&gt;nil&lt;/font&gt;" style="text;html=1;strokeColor=none;fillColor=none;align=center;verticalAlign=middle;whiteSpace=wrap;rounded=0;" vertex="1" parent="1">
                    <mxGeometry x="324" y="571" width="40" height="20" as="geometry"/>
                </mxCell>
                <mxCell id="267" value="头结点" style="text;html=1;strokeColor=none;fillColor=none;align=center;verticalAlign=middle;whiteSpace=wrap;rounded=0;" vertex="1" parent="1">
                    <mxGeometry x="168" y="778" width="40" height="20" as="geometry"/>
                </mxCell>
                <mxCell id="268" value="head" style="text;html=1;strokeColor=none;fillColor=none;align=center;verticalAlign=middle;whiteSpace=wrap;rounded=0;" vertex="1" parent="1">
                    <mxGeometry x="69" y="813" width="40" height="20" as="geometry"/>
                </mxCell>
                <mxCell id="269" value="" style="endArrow=classic;html=1;strokeColor=#FFFF66;strokeWidth=1;" edge="1" parent="1">
                    <mxGeometry width="50" height="50" relative="1" as="geometry">
                        <mxPoint x="106" y="822" as="sourcePoint"/>
                        <mxPoint x="134" y="822" as="targetPoint"/>
                    </mxGeometry>
                </mxCell>
                <mxCell id="270" value="&lt;font style=&quot;font-size: 12px&quot;&gt;nil&lt;/font&gt;" style="text;html=1;strokeColor=none;fillColor=none;align=center;verticalAlign=middle;whiteSpace=wrap;rounded=0;" vertex="1" parent="1">
                    <mxGeometry x="69" y="798" width="40" height="20" as="geometry"/>
                </mxCell>
                <mxCell id="271" value="" style="group;spacing=0;" vertex="1" connectable="0" parent="1">
                    <mxGeometry x="134" y="802" width="127" height="43" as="geometry"/>
                </mxCell>
                <mxCell id="272" value="&lt;span style=&quot;font-size: 15px&quot;&gt;&amp;nbsp;pre&amp;nbsp; &amp;nbsp; nil&amp;nbsp; &amp;nbsp; next&lt;/span&gt;" style="rounded=0;whiteSpace=wrap;html=1;strokeColor=#FFFF66;strokeWidth=2;spacing=0;align=left;spacingLeft=2;spacingBottom=3;" vertex="1" parent="271">
                    <mxGeometry width="117" height="27" as="geometry"/>
                </mxCell>
                <mxCell id="273" value="" style="endArrow=none;html=1;entryX=0.5;entryY=0;entryDx=0;entryDy=0;exitX=0.5;exitY=1;exitDx=0;exitDy=0;strokeColor=#FFFF66;strokeWidth=2;" edge="1" parent="271">
                    <mxGeometry width="50" height="50" relative="1" as="geometry">
                        <mxPoint x="36.001428571428576" y="27" as="sourcePoint"/>
                        <mxPoint x="36.001428571428576" as="targetPoint"/>
                    </mxGeometry>
                </mxCell>
                <mxCell id="274" value="" style="endArrow=none;html=1;entryX=0.5;entryY=0;entryDx=0;entryDy=0;exitX=0.5;exitY=1;exitDx=0;exitDy=0;strokeColor=#FFFF66;strokeWidth=2;" edge="1" parent="271">
                    <mxGeometry width="50" height="50" relative="1" as="geometry">
                        <mxPoint x="70.00142857142856" y="27" as="sourcePoint"/>
                        <mxPoint x="70.00142857142856" as="targetPoint"/>
                    </mxGeometry>
                </mxCell>
                <mxCell id="345" value="" style="rounded=1;whiteSpace=wrap;html=1;fillColor=none;strokeColor=#FF0080;fontColor=#ffffff;" vertex="1" parent="271">
                    <mxGeometry x="-5" y="-7" width="132" height="41" as="geometry"/>
                </mxCell>
                <mxCell id="275" value="" style="endArrow=classic;html=1;strokeColor=#FFFF66;strokeWidth=1;startArrow=oval;startFill=1;startSize=2;" edge="1" parent="1">
                    <mxGeometry width="50" height="50" relative="1" as="geometry">
                        <mxPoint x="138" y="809" as="sourcePoint"/>
                        <mxPoint x="100" y="809" as="targetPoint"/>
                    </mxGeometry>
                </mxCell>
                <mxCell id="276" value="第一个数据点" style="text;html=1;strokeColor=none;fillColor=none;align=center;verticalAlign=middle;whiteSpace=wrap;rounded=0;" vertex="1" parent="1">
                    <mxGeometry x="302" y="781" width="87" height="20" as="geometry"/>
                </mxCell>
                <mxCell id="278" value="" style="group;spacing=0;" vertex="1" connectable="0" parent="1">
                    <mxGeometry x="287" y="801" width="127" height="33.5" as="geometry"/>
                </mxCell>
                <mxCell id="279" value="&lt;span style=&quot;font-size: 15px&quot;&gt;&amp;nbsp;pre&amp;nbsp; &amp;nbsp;data&amp;nbsp; &amp;nbsp;next&lt;/span&gt;" style="rounded=0;whiteSpace=wrap;html=1;strokeColor=#FFFF66;strokeWidth=2;spacing=0;align=left;spacingLeft=2;spacingBottom=3;" vertex="1" parent="278">
                    <mxGeometry width="117" height="27" as="geometry"/>
                </mxCell>
                <mxCell id="280" value="" style="endArrow=none;html=1;entryX=0.5;entryY=0;entryDx=0;entryDy=0;exitX=0.5;exitY=1;exitDx=0;exitDy=0;strokeColor=#FFFF66;strokeWidth=2;" edge="1" parent="278">
                    <mxGeometry width="50" height="50" relative="1" as="geometry">
                        <mxPoint x="31.571428571428573" y="27" as="sourcePoint"/>
                        <mxPoint x="31.571428571428573" as="targetPoint"/>
                    </mxGeometry>
                </mxCell>
                <mxCell id="281" value="" style="endArrow=none;html=1;entryX=0.5;entryY=0;entryDx=0;entryDy=0;exitX=0.5;exitY=1;exitDx=0;exitDy=0;strokeColor=#FFFF66;strokeWidth=2;" edge="1" parent="278">
                    <mxGeometry width="50" height="50" relative="1" as="geometry">
                        <mxPoint x="75.00142857142856" y="27" as="sourcePoint"/>
                        <mxPoint x="75.00142857142856" as="targetPoint"/>
                    </mxGeometry>
                </mxCell>
                <mxCell id="349" value="" style="rounded=1;whiteSpace=wrap;html=1;fillColor=none;strokeColor=#FF0080;fontColor=#ffffff;" vertex="1" parent="278">
                    <mxGeometry x="-5" y="-6.5" width="132" height="40" as="geometry"/>
                </mxCell>
                <mxCell id="283" value="" style="endArrow=classic;html=1;strokeColor=#FFFF66;strokeWidth=1;startArrow=oval;startFill=1;startSize=2;" edge="1" parent="1">
                    <mxGeometry width="50" height="50" relative="1" as="geometry">
                        <mxPoint x="398" y="821.9" as="sourcePoint"/>
                        <mxPoint x="436" y="822" as="targetPoint"/>
                    </mxGeometry>
                </mxCell>
                <mxCell id="284" value="" style="group;spacing=0;" vertex="1" connectable="0" parent="1">
                    <mxGeometry x="440" y="800" width="117" height="27" as="geometry"/>
                </mxCell>
                <mxCell id="285" value="&lt;span style=&quot;font-size: 15px&quot;&gt;&amp;nbsp;pre&amp;nbsp; &amp;nbsp;data&amp;nbsp; &amp;nbsp;next&lt;/span&gt;" style="rounded=0;whiteSpace=wrap;html=1;strokeColor=#FFFF66;strokeWidth=2;spacing=0;align=left;spacingLeft=2;spacingBottom=3;" vertex="1" parent="284">
                    <mxGeometry width="117" height="27" as="geometry"/>
                </mxCell>
                <mxCell id="286" value="" style="endArrow=none;html=1;entryX=0.5;entryY=0;entryDx=0;entryDy=0;exitX=0.5;exitY=1;exitDx=0;exitDy=0;strokeColor=#FFFF66;strokeWidth=2;" edge="1" parent="284">
                    <mxGeometry width="50" height="50" relative="1" as="geometry">
                        <mxPoint x="31.571428571428573" y="27" as="sourcePoint"/>
                        <mxPoint x="31.571428571428573" as="targetPoint"/>
                    </mxGeometry>
                </mxCell>
                <mxCell id="287" value="" style="endArrow=none;html=1;entryX=0.5;entryY=0;entryDx=0;entryDy=0;exitX=0.5;exitY=1;exitDx=0;exitDy=0;strokeColor=#FFFF66;strokeWidth=2;" edge="1" parent="284">
                    <mxGeometry width="50" height="50" relative="1" as="geometry">
                        <mxPoint x="75.00142857142856" y="27" as="sourcePoint"/>
                        <mxPoint x="75.00142857142856" as="targetPoint"/>
                    </mxGeometry>
                </mxCell>
                <mxCell id="288" value="" style="endArrow=classic;html=1;strokeColor=#FFFF66;strokeWidth=1;startArrow=oval;startFill=1;startSize=2;" edge="1" parent="1">
                    <mxGeometry width="50" height="50" relative="1" as="geometry">
                        <mxPoint x="442" y="807" as="sourcePoint"/>
                        <mxPoint x="404" y="807" as="targetPoint"/>
                    </mxGeometry>
                </mxCell>
                <mxCell id="289" value="第二个数据点" style="text;html=1;strokeColor=none;fillColor=none;align=center;verticalAlign=middle;whiteSpace=wrap;rounded=0;" vertex="1" parent="1">
                    <mxGeometry x="455" y="778" width="87" height="20" as="geometry"/>
                </mxCell>
                <mxCell id="291" value="" style="endArrow=classic;html=1;strokeColor=#FFFF66;strokeWidth=1;startArrow=oval;startFill=1;startSize=2;" edge="1" parent="1">
                    <mxGeometry width="50" height="50" relative="1" as="geometry">
                        <mxPoint x="552" y="822.9" as="sourcePoint"/>
                        <mxPoint x="590" y="823" as="targetPoint"/>
                    </mxGeometry>
                </mxCell>
                <mxCell id="292" value="" style="group;spacing=0;" vertex="1" connectable="0" parent="1">
                    <mxGeometry x="594" y="801" width="117" height="27" as="geometry"/>
                </mxCell>
                <mxCell id="293" value="&lt;span style=&quot;font-size: 15px&quot;&gt;&amp;nbsp;pre&amp;nbsp; &amp;nbsp;data&amp;nbsp; &amp;nbsp;next&lt;/span&gt;" style="rounded=0;whiteSpace=wrap;html=1;strokeColor=#FFFF66;strokeWidth=2;spacing=0;align=left;spacingLeft=2;spacingBottom=3;" vertex="1" parent="292">
                    <mxGeometry width="117" height="27" as="geometry"/>
                </mxCell>
                <mxCell id="294" value="" style="endArrow=none;html=1;entryX=0.5;entryY=0;entryDx=0;entryDy=0;exitX=0.5;exitY=1;exitDx=0;exitDy=0;strokeColor=#FFFF66;strokeWidth=2;" edge="1" parent="292">
                    <mxGeometry width="50" height="50" relative="1" as="geometry">
                        <mxPoint x="31.571428571428573" y="27" as="sourcePoint"/>
                        <mxPoint x="31.571428571428573" as="targetPoint"/>
                    </mxGeometry>
                </mxCell>
                <mxCell id="295" value="" style="endArrow=none;html=1;entryX=0.5;entryY=0;entryDx=0;entryDy=0;exitX=0.5;exitY=1;exitDx=0;exitDy=0;strokeColor=#FFFF66;strokeWidth=2;" edge="1" parent="292">
                    <mxGeometry width="50" height="50" relative="1" as="geometry">
                        <mxPoint x="75.00142857142856" y="27" as="sourcePoint"/>
                        <mxPoint x="75.00142857142856" as="targetPoint"/>
                    </mxGeometry>
                </mxCell>
                <mxCell id="296" value="" style="endArrow=classic;html=1;strokeColor=#FFFF66;strokeWidth=1;startArrow=oval;startFill=1;startSize=2;" edge="1" parent="1">
                    <mxGeometry width="50" height="50" relative="1" as="geometry">
                        <mxPoint x="596" y="808" as="sourcePoint"/>
                        <mxPoint x="558" y="808" as="targetPoint"/>
                    </mxGeometry>
                </mxCell>
                <mxCell id="297" value="第三个数据点" style="text;html=1;strokeColor=none;fillColor=none;align=center;verticalAlign=middle;whiteSpace=wrap;rounded=0;" vertex="1" parent="1">
                    <mxGeometry x="609" y="779" width="87" height="20" as="geometry"/>
                </mxCell>
                <mxCell id="298" value="" style="endArrow=classic;html=1;strokeColor=#FFFF66;strokeWidth=1;startArrow=oval;startFill=1;startSize=2;" edge="1" parent="1">
                    <mxGeometry width="50" height="50" relative="1" as="geometry">
                        <mxPoint x="707" y="822.8299999999999" as="sourcePoint"/>
                        <mxPoint x="745" y="822.9300000000001" as="targetPoint"/>
                    </mxGeometry>
                </mxCell>
                <mxCell id="299" value="" style="endArrow=none;dashed=1;html=1;strokeColor=#FFFF66;strokeWidth=2;" edge="1" parent="1">
                    <mxGeometry width="50" height="50" relative="1" as="geometry">
                        <mxPoint x="50" y="449" as="sourcePoint"/>
                        <mxPoint x="803" y="449" as="targetPoint"/>
                    </mxGeometry>
                </mxCell>
                <mxCell id="300" value="" style="endArrow=classic;html=1;strokeColor=#FFFF66;strokeWidth=1;startArrow=oval;startFill=1;startSize=2;" edge="1" parent="1">
                    <mxGeometry width="50" height="50" relative="1" as="geometry">
                        <mxPoint x="595" y="807.71" as="sourcePoint"/>
                        <mxPoint x="557" y="807.71" as="targetPoint"/>
                    </mxGeometry>
                </mxCell>
                <mxCell id="302" value="" style="group;spacing=0;" vertex="1" connectable="0" parent="1">
                    <mxGeometry x="338" y="644" width="127" height="33.5" as="geometry"/>
                </mxCell>
                <mxCell id="303" value="&lt;span style=&quot;font-size: 15px&quot;&gt;&amp;nbsp;pre&amp;nbsp; &amp;nbsp;data&amp;nbsp; &amp;nbsp;next&lt;/span&gt;" style="rounded=0;whiteSpace=wrap;html=1;strokeColor=#FFFF66;strokeWidth=2;spacing=0;align=left;spacingLeft=2;spacingBottom=3;" vertex="1" parent="302">
                    <mxGeometry width="117" height="27" as="geometry"/>
                </mxCell>
                <mxCell id="304" value="" style="endArrow=none;html=1;entryX=0.5;entryY=0;entryDx=0;entryDy=0;exitX=0.5;exitY=1;exitDx=0;exitDy=0;strokeColor=#FFFF66;strokeWidth=2;" edge="1" parent="302">
                    <mxGeometry width="50" height="50" relative="1" as="geometry">
                        <mxPoint x="31.571428571428573" y="27" as="sourcePoint"/>
                        <mxPoint x="31.571428571428573" as="targetPoint"/>
                    </mxGeometry>
                </mxCell>
                <mxCell id="305" value="" style="endArrow=none;html=1;entryX=0.5;entryY=0;entryDx=0;entryDy=0;exitX=0.5;exitY=1;exitDx=0;exitDy=0;strokeColor=#FFFF66;strokeWidth=2;" edge="1" parent="302">
                    <mxGeometry width="50" height="50" relative="1" as="geometry">
                        <mxPoint x="75.00142857142856" y="27" as="sourcePoint"/>
                        <mxPoint x="75.00142857142856" as="targetPoint"/>
                    </mxGeometry>
                </mxCell>
                <mxCell id="324" value="" style="rounded=1;whiteSpace=wrap;html=1;fillColor=none;strokeColor=#FF0080;fontColor=#ffffff;" vertex="1" parent="302">
                    <mxGeometry x="-5" y="-6.5" width="132" height="40" as="geometry"/>
                </mxCell>
                <mxCell id="308" value="" style="endArrow=classic;html=1;strokeColor=#FFFF66;strokeWidth=1;startArrow=oval;startFill=1;startSize=2;" edge="1" parent="1">
                    <mxGeometry width="50" height="50" relative="1" as="geometry">
                        <mxPoint x="451" y="665.8299999999999" as="sourcePoint"/>
                        <mxPoint x="489" y="665.9300000000001" as="targetPoint"/>
                    </mxGeometry>
                </mxCell>
                <mxCell id="310" value="" style="curved=1;endArrow=classic;html=1;strokeColor=#A50040;strokeWidth=2;fillColor=#d80073;startArrow=oval;startFill=1;startSize=3;" edge="1" parent="1">
                    <mxGeometry width="50" height="50" relative="1" as="geometry">
                        <mxPoint x="342" y="662" as="sourcePoint"/>
                        <mxPoint x="235" y="595" as="targetPoint"/>
                        <Array as="points">
                            <mxPoint x="296" y="651"/>
                            <mxPoint x="245.5" y="619"/>
                        </Array>
                    </mxGeometry>
                </mxCell>
                <mxCell id="311" value="" style="curved=1;endArrow=classic;html=1;strokeColor=#A50040;strokeWidth=2;fillColor=#d80073;startArrow=oval;startFill=1;startSize=3;" edge="1" parent="1">
                    <mxGeometry width="50" height="50" relative="1" as="geometry">
                        <mxPoint x="297" y="572.5" as="sourcePoint"/>
                        <mxPoint x="396" y="634" as="targetPoint"/>
                        <Array as="points">
                            <mxPoint x="345" y="557"/>
                            <mxPoint x="391" y="595"/>
                        </Array>
                    </mxGeometry>
                </mxCell>
                <mxCell id="325" value="&lt;font style=&quot;font-size: 12px&quot;&gt;nil&lt;/font&gt;" style="text;html=1;strokeColor=none;fillColor=none;align=center;verticalAlign=middle;whiteSpace=wrap;rounded=0;" vertex="1" parent="1">
                    <mxGeometry x="479.5" y="655" width="40" height="20" as="geometry"/>
                </mxCell>
                <mxCell id="326" value="" style="endArrow=classic;html=1;strokeColor=#FFFF66;strokeWidth=1;startArrow=oval;startFill=1;startSize=2;" edge="1" parent="1">
                    <mxGeometry width="50" height="50" relative="1" as="geometry">
                        <mxPoint x="343" y="667.3100000000001" as="sourcePoint"/>
                        <mxPoint x="305" y="667.2099999999999" as="targetPoint"/>
                    </mxGeometry>
                </mxCell>
                <mxCell id="327" value="&lt;font style=&quot;font-size: 12px&quot;&gt;nil&lt;/font&gt;" style="text;html=1;strokeColor=none;fillColor=none;align=center;verticalAlign=middle;whiteSpace=wrap;rounded=0;" vertex="1" parent="1">
                    <mxGeometry x="275" y="657.5" width="40" height="20" as="geometry"/>
                </mxCell>
                <mxCell id="328" value="" style="curved=1;endArrow=classic;html=1;strokeColor=#A50040;strokeWidth=2;fillColor=#d80073;startArrow=oval;startFill=1;startSize=3;" edge="1" parent="1">
                    <mxGeometry width="50" height="50" relative="1" as="geometry">
                        <mxPoint x="342" y="662" as="sourcePoint"/>
                        <mxPoint x="235" y="595" as="targetPoint"/>
                        <Array as="points">
                            <mxPoint x="296" y="651"/>
                            <mxPoint x="245.5" y="619"/>
                        </Array>
                    </mxGeometry>
                </mxCell>
                <mxCell id="332" value="" style="group;spacing=0;" vertex="1" connectable="0" parent="1">
                    <mxGeometry x="229" y="896" width="127" height="33.5" as="geometry"/>
                </mxCell>
                <mxCell id="333" value="&lt;span style=&quot;font-size: 15px&quot;&gt;&amp;nbsp;pre&amp;nbsp; &amp;nbsp;data&amp;nbsp; &amp;nbsp;next&lt;/span&gt;" style="rounded=0;whiteSpace=wrap;html=1;strokeColor=#FFFF66;strokeWidth=2;spacing=0;align=left;spacingLeft=2;spacingBottom=3;" vertex="1" parent="332">
                    <mxGeometry width="117" height="27" as="geometry"/>
                </mxCell>
                <mxCell id="334" value="" style="endArrow=none;html=1;entryX=0.5;entryY=0;entryDx=0;entryDy=0;exitX=0.5;exitY=1;exitDx=0;exitDy=0;strokeColor=#FFFF66;strokeWidth=2;" edge="1" parent="332">
                    <mxGeometry width="50" height="50" relative="1" as="geometry">
                        <mxPoint x="31.571428571428573" y="27" as="sourcePoint"/>
                        <mxPoint x="31.571428571428573" as="targetPoint"/>
                    </mxGeometry>
                </mxCell>
                <mxCell id="335" value="" style="endArrow=none;html=1;entryX=0.5;entryY=0;entryDx=0;entryDy=0;exitX=0.5;exitY=1;exitDx=0;exitDy=0;strokeColor=#FFFF66;strokeWidth=2;" edge="1" parent="332">
                    <mxGeometry width="50" height="50" relative="1" as="geometry">
                        <mxPoint x="75.00142857142856" y="27" as="sourcePoint"/>
                        <mxPoint x="75.00142857142856" as="targetPoint"/>
                    </mxGeometry>
                </mxCell>
                <mxCell id="336" value="" style="rounded=1;whiteSpace=wrap;html=1;fillColor=none;strokeColor=#FF0080;fontColor=#ffffff;" vertex="1" parent="332">
                    <mxGeometry x="-5" y="-6.5" width="132" height="40" as="geometry"/>
                </mxCell>
                <mxCell id="341" value="" style="curved=1;endArrow=classic;html=1;strokeColor=#A50040;strokeWidth=2;fillColor=#d80073;startArrow=oval;startFill=1;startSize=3;" edge="1" parent="1">
                    <mxGeometry width="50" height="50" relative="1" as="geometry">
                        <mxPoint x="233" y="909.5" as="sourcePoint"/>
                        <mxPoint x="181" y="843" as="targetPoint"/>
                        <Array as="points">
                            <mxPoint x="198" y="893"/>
                            <mxPoint x="181" y="867"/>
                        </Array>
                    </mxGeometry>
                </mxCell>
                <mxCell id="342" value="头部添加" style="text;html=1;strokeColor=none;fillColor=none;align=center;verticalAlign=middle;whiteSpace=wrap;rounded=0;fontColor=#FFFF66;fontSize=20;" vertex="1" parent="1">
                    <mxGeometry x="44" y="473" width="108" height="20" as="geometry"/>
                </mxCell>
                <mxCell id="347" value="" style="curved=1;endArrow=classic;html=1;strokeColor=#A50040;strokeWidth=2;fillColor=#d80073;startArrow=oval;startFill=1;startSize=3;" edge="1" parent="1">
                    <mxGeometry width="50" height="50" relative="1" as="geometry">
                        <mxPoint x="312" y="823" as="sourcePoint"/>
                        <mxPoint x="318" y="884" as="targetPoint"/>
                        <Array as="points">
                            <mxPoint x="312" y="823"/>
                            <mxPoint x="337" y="848"/>
                        </Array>
                    </mxGeometry>
                </mxCell>
                <mxCell id="348" value="" style="curved=1;endArrow=classic;html=1;strokeColor=#A50040;strokeWidth=2;fillColor=#d80073;startArrow=oval;startFill=1;startSize=3;" edge="1" parent="1">
                    <mxGeometry width="50" height="50" relative="1" as="geometry">
                        <mxPoint x="342" y="909.5" as="sourcePoint"/>
                        <mxPoint x="369" y="837" as="targetPoint"/>
                        <Array as="points">
                            <mxPoint x="385" y="872"/>
                        </Array>
                    </mxGeometry>
                </mxCell>
                <mxCell id="350" value="" style="curved=1;endArrow=classic;html=1;strokeColor=#A50040;strokeWidth=2;fillColor=#d80073;startArrow=oval;startFill=1;startSize=3;" edge="1" parent="1">
                    <mxGeometry width="50" height="50" relative="1" as="geometry">
                        <mxPoint x="243" y="823" as="sourcePoint"/>
                        <mxPoint x="260" y="884" as="targetPoint"/>
                        <Array as="points">
                            <mxPoint x="243" y="823"/>
                            <mxPoint x="243" y="863"/>
                        </Array>
                    </mxGeometry>
                </mxCell>
                <mxCell id="351" value="&lt;font style=&quot;font-size: 12px&quot;&gt;nil&lt;/font&gt;" style="text;html=1;strokeColor=none;fillColor=none;align=center;verticalAlign=middle;whiteSpace=wrap;rounded=0;" vertex="1" parent="1">
                    <mxGeometry x="735" y="813" width="40" height="20" as="geometry"/>
                </mxCell>
            </root>
        </mxGraphModel>
    </diagram>
</mxfile>